<mxfile host="app.diagrams.net" agent="Mozilla/5.0 (Windows NT 10.0; Win64; x64) AppleWebKit/537.36 (KHTML, like Gecko) Chrome/134.0.0.0 Safari/537.36" version="26.2.7">
  <diagram name="Page-1" id="b5b7bab2-c9e2-2cf4-8b2a-24fd1a2a6d21">
    <mxGraphModel dx="872" dy="479" grid="1" gridSize="10" guides="1" tooltips="1" connect="1" arrows="1" fold="1" page="1" pageScale="1" pageWidth="827" pageHeight="1169" background="none" math="0" shadow="0">
      <root>
        <mxCell id="0" />
        <mxCell id="1" parent="0" />
        <mxCell id="6kUAtGSwKYrOzXWDaver-33" value="" style="rounded=0;whiteSpace=wrap;html=1;dashed=1;" parent="1" vertex="1">
          <mxGeometry x="511" y="200" width="179" height="140" as="geometry" />
        </mxCell>
        <mxCell id="6kUAtGSwKYrOzXWDaver-17" value="" style="rounded=0;whiteSpace=wrap;html=1;" parent="1" vertex="1">
          <mxGeometry x="328.76" y="380" width="95" height="40" as="geometry" />
        </mxCell>
        <mxCell id="6kUAtGSwKYrOzXWDaver-8" value="" style="whiteSpace=wrap;html=1;aspect=fixed;dashed=1;" parent="1" vertex="1">
          <mxGeometry x="291.26" y="280" width="170" height="170" as="geometry" />
        </mxCell>
        <mxCell id="kQwfvUEjWwnIHG5cwfoE-1" value="" style="shape=cylinder3;whiteSpace=wrap;html=1;boundedLbl=1;backgroundOutline=1;size=15;" parent="1" vertex="1">
          <mxGeometry x="90" y="195" width="90" height="80" as="geometry" />
        </mxCell>
        <mxCell id="kQwfvUEjWwnIHG5cwfoE-8" value="" style="whiteSpace=wrap;html=1;aspect=fixed;dashed=1;" parent="1" vertex="1">
          <mxGeometry x="58.12" y="330" width="170" height="170" as="geometry" />
        </mxCell>
        <mxCell id="kQwfvUEjWwnIHG5cwfoE-11" value="&lt;font face=&quot;Times New Roman&quot;&gt;&lt;b&gt;Input Dataset&amp;nbsp;&lt;/b&gt;&lt;/font&gt;" style="text;html=1;align=center;verticalAlign=middle;whiteSpace=wrap;rounded=0;" parent="1" vertex="1">
          <mxGeometry x="81.87" y="235" width="110" height="30" as="geometry" />
        </mxCell>
        <mxCell id="kQwfvUEjWwnIHG5cwfoE-13" value="" style="rounded=0;whiteSpace=wrap;html=1;" parent="1" vertex="1">
          <mxGeometry x="94.37" y="360" width="97.5" height="40" as="geometry" />
        </mxCell>
        <mxCell id="ikrz5N7pqe939FrR8JHd-14" value="" style="rounded=0;whiteSpace=wrap;html=1;" parent="1" vertex="1">
          <mxGeometry x="511" y="367.5" width="179" height="27.5" as="geometry" />
        </mxCell>
        <mxCell id="ikrz5N7pqe939FrR8JHd-15" value="" style="rounded=0;whiteSpace=wrap;html=1;" parent="1" vertex="1">
          <mxGeometry x="327.5" y="310" width="95" height="40" as="geometry" />
        </mxCell>
        <mxCell id="ikrz5N7pqe939FrR8JHd-22" value="" style="rounded=0;whiteSpace=wrap;html=1;" parent="1" vertex="1">
          <mxGeometry x="529.62" y="230" width="140.38" height="30" as="geometry" />
        </mxCell>
        <mxCell id="ikrz5N7pqe939FrR8JHd-24" value="" style="rounded=0;whiteSpace=wrap;html=1;" parent="1" vertex="1">
          <mxGeometry x="500" y="420" width="80" height="30" as="geometry" />
        </mxCell>
        <mxCell id="ikrz5N7pqe939FrR8JHd-26" value="" style="rounded=0;whiteSpace=wrap;html=1;dashed=1;" parent="1" vertex="1">
          <mxGeometry x="622.87" y="545" width="186.5" height="105" as="geometry" />
        </mxCell>
        <mxCell id="ikrz5N7pqe939FrR8JHd-27" value="" style="rounded=0;whiteSpace=wrap;html=1;" parent="1" vertex="1">
          <mxGeometry x="645" y="580" width="150" height="25" as="geometry" />
        </mxCell>
        <mxCell id="ikrz5N7pqe939FrR8JHd-29" value="&lt;font face=&quot;Times New Roman&quot;&gt;&lt;b&gt;Data Processing&amp;nbsp;&amp;nbsp;&lt;/b&gt;&lt;/font&gt;" style="text;html=1;align=center;verticalAlign=middle;whiteSpace=wrap;rounded=0;" parent="1" vertex="1">
          <mxGeometry x="92.5" y="330" width="110" height="30" as="geometry" />
        </mxCell>
        <mxCell id="ikrz5N7pqe939FrR8JHd-31" value="&lt;font face=&quot;Times New Roman&quot;&gt;&lt;b&gt;Modelling&amp;nbsp;&lt;/b&gt;&lt;/font&gt;" style="text;html=1;align=center;verticalAlign=middle;whiteSpace=wrap;rounded=0;" parent="1" vertex="1">
          <mxGeometry x="550" y="210" width="110" height="20" as="geometry" />
        </mxCell>
        <mxCell id="ikrz5N7pqe939FrR8JHd-35" value="&lt;font face=&quot;Times New Roman&quot;&gt;Fixing&amp;nbsp;&lt;/font&gt;&lt;div&gt;&lt;font face=&quot;Times New Roman&quot;&gt;missing values&lt;/font&gt;&lt;/div&gt;" style="text;html=1;align=center;verticalAlign=middle;whiteSpace=wrap;rounded=0;" parent="1" vertex="1">
          <mxGeometry x="96.26" y="362.5" width="93.74" height="35" as="geometry" />
        </mxCell>
        <mxCell id="ikrz5N7pqe939FrR8JHd-30" value="&lt;font face=&quot;Times New Roman&quot;&gt;&lt;b&gt;Features&amp;nbsp;&lt;/b&gt;&lt;/font&gt;" style="text;html=1;align=center;verticalAlign=middle;whiteSpace=wrap;rounded=0;" parent="1" vertex="1">
          <mxGeometry x="320" y="280" width="110" height="30" as="geometry" />
        </mxCell>
        <mxCell id="6kUAtGSwKYrOzXWDaver-4" value="" style="rounded=0;whiteSpace=wrap;html=1;" parent="1" vertex="1">
          <mxGeometry x="91.88" y="405" width="97.5" height="40" as="geometry" />
        </mxCell>
        <mxCell id="6kUAtGSwKYrOzXWDaver-7" value="" style="rounded=0;whiteSpace=wrap;html=1;" parent="1" vertex="1">
          <mxGeometry x="92.5" y="450" width="97.5" height="40" as="geometry" />
        </mxCell>
        <mxCell id="6kUAtGSwKYrOzXWDaver-1" value="&lt;font face=&quot;Times New Roman&quot;&gt;Handling Categorical data&lt;/font&gt;" style="text;html=1;align=center;verticalAlign=middle;whiteSpace=wrap;rounded=0;" parent="1" vertex="1">
          <mxGeometry x="94.37" y="460" width="85.63" height="30" as="geometry" />
        </mxCell>
        <mxCell id="6kUAtGSwKYrOzXWDaver-3" value="&lt;font face=&quot;Times New Roman&quot;&gt;Checking For Duplicate&amp;nbsp;&lt;/font&gt;" style="text;html=1;align=center;verticalAlign=middle;whiteSpace=wrap;rounded=0;" parent="1" vertex="1">
          <mxGeometry x="98.74999999999999" y="410" width="88.75" height="30" as="geometry" />
        </mxCell>
        <mxCell id="6kUAtGSwKYrOzXWDaver-14" value="&lt;font face=&quot;Times New Roman&quot;&gt;Explorative Data Analysis&amp;nbsp;&lt;/font&gt;" style="text;html=1;align=center;verticalAlign=middle;whiteSpace=wrap;rounded=0;" parent="1" vertex="1">
          <mxGeometry x="328.76" y="312.5" width="93.74" height="35" as="geometry" />
        </mxCell>
        <mxCell id="6kUAtGSwKYrOzXWDaver-15" value="&lt;font face=&quot;Times New Roman&quot;&gt;Fixing&amp;nbsp;&lt;/font&gt;&lt;div&gt;&lt;font face=&quot;Times New Roman&quot;&gt;missing values&lt;/font&gt;&lt;/div&gt;" style="text;html=1;align=center;verticalAlign=middle;whiteSpace=wrap;rounded=0;" parent="1" vertex="1">
          <mxGeometry x="327.5" y="360" width="93.74" height="35" as="geometry" />
        </mxCell>
        <mxCell id="6kUAtGSwKYrOzXWDaver-16" value="" style="rounded=0;whiteSpace=wrap;html=1;" parent="1" vertex="1">
          <mxGeometry x="326.24" y="405" width="95" height="40" as="geometry" />
        </mxCell>
        <mxCell id="6kUAtGSwKYrOzXWDaver-23" value="" style="rounded=0;whiteSpace=wrap;html=1;" parent="1" vertex="1">
          <mxGeometry x="326.24" y="355" width="95" height="40" as="geometry" />
        </mxCell>
        <mxCell id="6kUAtGSwKYrOzXWDaver-24" value="" style="curved=1;endArrow=classic;html=1;rounded=0;entryX=0.016;entryY=0.635;entryDx=0;entryDy=0;entryPerimeter=0;" parent="1" target="6kUAtGSwKYrOzXWDaver-8" edge="1">
          <mxGeometry width="50" height="50" relative="1" as="geometry">
            <mxPoint x="230" y="440" as="sourcePoint" />
            <mxPoint x="280" y="390" as="targetPoint" />
            <Array as="points">
              <mxPoint x="280" y="440" />
              <mxPoint x="230" y="390" />
            </Array>
          </mxGeometry>
        </mxCell>
        <mxCell id="6kUAtGSwKYrOzXWDaver-26" value="" style="endArrow=classic;html=1;rounded=0;exitX=0.5;exitY=1;exitDx=0;exitDy=0;exitPerimeter=0;entryX=0.377;entryY=0.067;entryDx=0;entryDy=0;entryPerimeter=0;" parent="1" source="kQwfvUEjWwnIHG5cwfoE-1" target="ikrz5N7pqe939FrR8JHd-29" edge="1">
          <mxGeometry width="50" height="50" relative="1" as="geometry">
            <mxPoint x="136.68" y="280" as="sourcePoint" />
            <mxPoint x="136.68" y="320" as="targetPoint" />
          </mxGeometry>
        </mxCell>
        <mxCell id="6kUAtGSwKYrOzXWDaver-30" value="" style="rounded=0;whiteSpace=wrap;html=1;" parent="1" vertex="1">
          <mxGeometry x="280" y="490" width="60" height="40" as="geometry" />
        </mxCell>
        <mxCell id="6kUAtGSwKYrOzXWDaver-35" value="" style="rounded=0;whiteSpace=wrap;html=1;" parent="1" vertex="1">
          <mxGeometry x="529.62" y="264.5" width="134.5" height="30" as="geometry" />
        </mxCell>
        <mxCell id="6kUAtGSwKYrOzXWDaver-36" value="" style="rounded=0;whiteSpace=wrap;html=1;" parent="1" vertex="1">
          <mxGeometry x="529.62" y="300" width="134.5" height="30" as="geometry" />
        </mxCell>
        <mxCell id="6kUAtGSwKYrOzXWDaver-37" value="" style="rounded=0;whiteSpace=wrap;html=1;" parent="1" vertex="1">
          <mxGeometry x="722.5000000000001" y="415" width="73.5" height="30" as="geometry" />
        </mxCell>
        <mxCell id="6kUAtGSwKYrOzXWDaver-39" value="" style="rounded=0;whiteSpace=wrap;html=1;" parent="1" vertex="1">
          <mxGeometry x="414" y="490" width="60" height="40" as="geometry" />
        </mxCell>
        <mxCell id="6kUAtGSwKYrOzXWDaver-40" value="" style="rounded=0;whiteSpace=wrap;html=1;" parent="1" vertex="1">
          <mxGeometry x="820" y="480" width="65" height="40" as="geometry" />
        </mxCell>
        <mxCell id="6kUAtGSwKYrOzXWDaver-43" value="" style="curved=1;endArrow=classic;html=1;rounded=0;" parent="1" edge="1">
          <mxGeometry width="50" height="50" relative="1" as="geometry">
            <mxPoint x="461.26" y="355" as="sourcePoint" />
            <mxPoint x="511.26" y="305" as="targetPoint" />
            <Array as="points">
              <mxPoint x="511.26" y="355" />
              <mxPoint x="461.26" y="305" />
            </Array>
          </mxGeometry>
        </mxCell>
        <mxCell id="6kUAtGSwKYrOzXWDaver-46" value="" style="rounded=0;whiteSpace=wrap;html=1;" parent="1" vertex="1">
          <mxGeometry x="645" y="615" width="150" height="25" as="geometry" />
        </mxCell>
        <mxCell id="6kUAtGSwKYrOzXWDaver-47" value="" style="rounded=0;whiteSpace=wrap;html=1;" parent="1" vertex="1">
          <mxGeometry x="730" y="480" width="65" height="40" as="geometry" />
        </mxCell>
        <mxCell id="6kUAtGSwKYrOzXWDaver-48" value="" style="rounded=0;whiteSpace=wrap;html=1;" parent="1" vertex="1">
          <mxGeometry x="632.5" y="480" width="65" height="40" as="geometry" />
        </mxCell>
        <mxCell id="6kUAtGSwKYrOzXWDaver-49" value="&lt;font face=&quot;Times New Roman&quot;&gt;Features Engineering&lt;/font&gt;" style="text;html=1;align=center;verticalAlign=middle;whiteSpace=wrap;rounded=0;" parent="1" vertex="1">
          <mxGeometry x="327.5" y="360" width="93.74" height="35" as="geometry" />
        </mxCell>
        <mxCell id="6kUAtGSwKYrOzXWDaver-50" value="&lt;font face=&quot;Times New Roman&quot;&gt;Splitting Dataset&amp;nbsp;&lt;/font&gt;" style="text;html=1;align=center;verticalAlign=middle;whiteSpace=wrap;rounded=0;" parent="1" vertex="1">
          <mxGeometry x="326.24" y="410" width="93.74" height="35" as="geometry" />
        </mxCell>
        <mxCell id="6kUAtGSwKYrOzXWDaver-51" value="&lt;font face=&quot;Times New Roman&quot;&gt;Test Set&lt;/font&gt;" style="text;html=1;align=center;verticalAlign=middle;whiteSpace=wrap;rounded=0;" parent="1" vertex="1">
          <mxGeometry x="263.13" y="495" width="93.74" height="35" as="geometry" />
        </mxCell>
        <mxCell id="6kUAtGSwKYrOzXWDaver-52" value="&lt;font face=&quot;Times New Roman&quot;&gt;Train Set&amp;nbsp;&lt;/font&gt;" style="text;html=1;align=center;verticalAlign=middle;whiteSpace=wrap;rounded=0;" parent="1" vertex="1">
          <mxGeometry x="397.13" y="495" width="93.74" height="35" as="geometry" />
        </mxCell>
        <mxCell id="6kUAtGSwKYrOzXWDaver-53" value="&lt;div&gt;&lt;font style=&quot;font-size: 18px;&quot; face=&quot;Times New Roman&quot;&gt;Model Evaluation&amp;nbsp;&lt;/font&gt;&lt;/div&gt;" style="text;html=1;align=center;verticalAlign=middle;whiteSpace=wrap;rounded=0;" parent="1" vertex="1">
          <mxGeometry x="531.87" y="230" width="138.13" height="35" as="geometry" />
        </mxCell>
        <mxCell id="6kUAtGSwKYrOzXWDaver-54" value="&lt;font face=&quot;Times New Roman&quot;&gt;Ensemble Model&amp;nbsp;&lt;/font&gt;" style="text;html=1;align=center;verticalAlign=middle;whiteSpace=wrap;rounded=0;" parent="1" vertex="1">
          <mxGeometry x="550" y="262.5" width="93.74" height="35" as="geometry" />
        </mxCell>
        <mxCell id="6kUAtGSwKYrOzXWDaver-55" value="&lt;div&gt;&lt;font face=&quot;Times New Roman&quot;&gt;Cross Validation&amp;nbsp;&lt;/font&gt;&lt;/div&gt;" style="text;html=1;align=center;verticalAlign=middle;whiteSpace=wrap;rounded=0;" parent="1" vertex="1">
          <mxGeometry x="550" y="297.5" width="93.74" height="35" as="geometry" />
        </mxCell>
        <mxCell id="6kUAtGSwKYrOzXWDaver-56" value="&lt;font face=&quot;Times New Roman&quot;&gt;Save Best performed model&amp;nbsp;&lt;/font&gt;" style="text;html=1;align=center;verticalAlign=middle;whiteSpace=wrap;rounded=0;" parent="1" vertex="1">
          <mxGeometry x="520" y="362.5" width="150" height="35" as="geometry" />
        </mxCell>
        <mxCell id="6kUAtGSwKYrOzXWDaver-57" value="&lt;font face=&quot;Times New Roman&quot;&gt;Input data&amp;nbsp; &amp;nbsp; from sensor&amp;nbsp;&lt;/font&gt;" style="text;html=1;align=center;verticalAlign=middle;whiteSpace=wrap;rounded=0;" parent="1" vertex="1">
          <mxGeometry x="506.57" y="417.5" width="66.87" height="35" as="geometry" />
        </mxCell>
        <mxCell id="6kUAtGSwKYrOzXWDaver-58" value="&lt;font face=&quot;Times New Roman&quot;&gt;Outcome&lt;/font&gt;" style="text;html=1;align=center;verticalAlign=middle;whiteSpace=wrap;rounded=0;" parent="1" vertex="1">
          <mxGeometry x="722.5" y="412.5" width="80.37" height="35" as="geometry" />
        </mxCell>
        <mxCell id="6kUAtGSwKYrOzXWDaver-59" value="&lt;font face=&quot;Times New Roman&quot;&gt;Normal&amp;nbsp;&lt;/font&gt;&lt;div&gt;&lt;font face=&quot;Times New Roman&quot;&gt;State&amp;nbsp;&lt;/font&gt;&lt;/div&gt;" style="text;html=1;align=center;verticalAlign=middle;whiteSpace=wrap;rounded=0;" parent="1" vertex="1">
          <mxGeometry x="805.63" y="485" width="93.74" height="35" as="geometry" />
        </mxCell>
        <mxCell id="6kUAtGSwKYrOzXWDaver-60" value="&lt;font face=&quot;Times New Roman&quot;&gt;Predict&lt;/font&gt;&lt;div&gt;&lt;font face=&quot;Times New Roman&quot;&gt;Fall&lt;/font&gt;&lt;/div&gt;" style="text;html=1;align=center;verticalAlign=middle;whiteSpace=wrap;rounded=0;" parent="1" vertex="1">
          <mxGeometry x="715.63" y="480" width="93.74" height="35" as="geometry" />
        </mxCell>
        <mxCell id="6kUAtGSwKYrOzXWDaver-61" value="&lt;font face=&quot;Times New Roman&quot;&gt;&lt;b&gt;Notification&lt;/b&gt;&lt;/font&gt;" style="text;html=1;align=center;verticalAlign=middle;whiteSpace=wrap;rounded=0;" parent="1" vertex="1">
          <mxGeometry x="670" y="545" width="93.74" height="35" as="geometry" />
        </mxCell>
        <mxCell id="6kUAtGSwKYrOzXWDaver-62" value="&lt;font face=&quot;Times New Roman&quot;&gt;Detect&amp;nbsp;&lt;/font&gt;&lt;div&gt;&lt;font face=&quot;Times New Roman&quot;&gt;Fall&lt;/font&gt;&lt;/div&gt;" style="text;html=1;align=center;verticalAlign=middle;whiteSpace=wrap;rounded=0;" parent="1" vertex="1">
          <mxGeometry x="634.4499999999999" y="482.5" width="58.11" height="35" as="geometry" />
        </mxCell>
        <mxCell id="6kUAtGSwKYrOzXWDaver-63" value="&lt;font face=&quot;Times New Roman&quot;&gt;Dashboard Display&amp;nbsp;&lt;/font&gt;" style="text;html=1;align=center;verticalAlign=middle;whiteSpace=wrap;rounded=0;" parent="1" vertex="1">
          <mxGeometry x="658.3" y="575" width="115.63" height="35" as="geometry" />
        </mxCell>
        <mxCell id="6kUAtGSwKYrOzXWDaver-64" value="&lt;font face=&quot;Times New Roman&quot;&gt;SMS Alert&amp;nbsp;&lt;/font&gt;" style="text;html=1;align=center;verticalAlign=middle;whiteSpace=wrap;rounded=0;" parent="1" vertex="1">
          <mxGeometry x="666.56" y="610" width="93.74" height="35" as="geometry" />
        </mxCell>
        <mxCell id="6kUAtGSwKYrOzXWDaver-67" value="" style="endArrow=classic;startArrow=classic;html=1;rounded=0;entryX=0.32;entryY=0.957;entryDx=0;entryDy=0;entryPerimeter=0;" parent="1" target="6kUAtGSwKYrOzXWDaver-56" edge="1">
          <mxGeometry width="50" height="50" relative="1" as="geometry">
            <mxPoint x="540" y="420" as="sourcePoint" />
            <mxPoint x="550" y="400" as="targetPoint" />
          </mxGeometry>
        </mxCell>
        <mxCell id="6kUAtGSwKYrOzXWDaver-68" value="" style="endArrow=classic;html=1;rounded=0;entryX=0;entryY=0.5;entryDx=0;entryDy=0;exitX=1;exitY=1;exitDx=0;exitDy=0;" parent="1" source="6kUAtGSwKYrOzXWDaver-56" target="6kUAtGSwKYrOzXWDaver-58" edge="1">
          <mxGeometry width="50" height="50" relative="1" as="geometry">
            <mxPoint x="670" y="430" as="sourcePoint" />
            <mxPoint x="720" y="380" as="targetPoint" />
          </mxGeometry>
        </mxCell>
        <mxCell id="6kUAtGSwKYrOzXWDaver-69" value="" style="endArrow=classic;html=1;rounded=0;exitX=1;exitY=1;exitDx=0;exitDy=0;" parent="1" edge="1">
          <mxGeometry width="50" height="50" relative="1" as="geometry">
            <mxPoint x="600" y="340" as="sourcePoint" />
            <mxPoint x="600" y="370" as="targetPoint" />
          </mxGeometry>
        </mxCell>
        <mxCell id="6kUAtGSwKYrOzXWDaver-71" value="" style="endArrow=classic;html=1;rounded=0;entryX=0.5;entryY=0;entryDx=0;entryDy=0;exitX=0.75;exitY=1;exitDx=0;exitDy=0;" parent="1" source="6kUAtGSwKYrOzXWDaver-8" target="6kUAtGSwKYrOzXWDaver-39" edge="1">
          <mxGeometry width="50" height="50" relative="1" as="geometry">
            <mxPoint x="430" y="450" as="sourcePoint" />
            <mxPoint x="470" y="460" as="targetPoint" />
          </mxGeometry>
        </mxCell>
        <mxCell id="6kUAtGSwKYrOzXWDaver-72" value="" style="endArrow=classic;html=1;rounded=0;entryX=0.65;entryY=0.025;entryDx=0;entryDy=0;entryPerimeter=0;exitX=0.346;exitY=1;exitDx=0;exitDy=0;exitPerimeter=0;" parent="1" source="6kUAtGSwKYrOzXWDaver-8" target="6kUAtGSwKYrOzXWDaver-30" edge="1">
          <mxGeometry width="50" height="50" relative="1" as="geometry">
            <mxPoint x="340" y="460" as="sourcePoint" />
            <mxPoint x="330" y="480" as="targetPoint" />
          </mxGeometry>
        </mxCell>
        <mxCell id="6kUAtGSwKYrOzXWDaver-73" value="" style="endArrow=classic;html=1;rounded=0;exitX=1;exitY=1;exitDx=0;exitDy=0;entryX=0.25;entryY=0;entryDx=0;entryDy=0;" parent="1" source="6kUAtGSwKYrOzXWDaver-58" target="6kUAtGSwKYrOzXWDaver-40" edge="1">
          <mxGeometry width="50" height="50" relative="1" as="geometry">
            <mxPoint x="795" y="502.5" as="sourcePoint" />
            <mxPoint x="845" y="452.5" as="targetPoint" />
          </mxGeometry>
        </mxCell>
        <mxCell id="6kUAtGSwKYrOzXWDaver-74" value="" style="endArrow=classic;html=1;rounded=0;exitX=1;exitY=1;exitDx=0;exitDy=0;" parent="1" edge="1">
          <mxGeometry width="50" height="50" relative="1" as="geometry">
            <mxPoint x="760.3" y="445" as="sourcePoint" />
            <mxPoint x="760" y="480" as="targetPoint" />
          </mxGeometry>
        </mxCell>
        <mxCell id="6kUAtGSwKYrOzXWDaver-75" value="" style="endArrow=classic;html=1;rounded=0;exitX=1;exitY=1;exitDx=0;exitDy=0;entryX=0.75;entryY=0;entryDx=0;entryDy=0;" parent="1" target="6kUAtGSwKYrOzXWDaver-48" edge="1">
          <mxGeometry width="50" height="50" relative="1" as="geometry">
            <mxPoint x="722.8" y="440" as="sourcePoint" />
            <mxPoint x="722.5" y="475" as="targetPoint" />
          </mxGeometry>
        </mxCell>
        <mxCell id="6kUAtGSwKYrOzXWDaver-76" value="" style="endArrow=classic;html=1;rounded=0;entryX=0.25;entryY=0;entryDx=0;entryDy=0;exitX=0.75;exitY=1;exitDx=0;exitDy=0;" parent="1" source="6kUAtGSwKYrOzXWDaver-48" target="ikrz5N7pqe939FrR8JHd-26" edge="1">
          <mxGeometry width="50" height="50" relative="1" as="geometry">
            <mxPoint x="690" y="530" as="sourcePoint" />
            <mxPoint x="655.7" y="550" as="targetPoint" />
          </mxGeometry>
        </mxCell>
        <mxCell id="6kUAtGSwKYrOzXWDaver-77" value="" style="endArrow=classic;html=1;rounded=0;exitX=1;exitY=1;exitDx=0;exitDy=0;entryX=0.826;entryY=0;entryDx=0;entryDy=0;entryPerimeter=0;" parent="1" target="ikrz5N7pqe939FrR8JHd-26" edge="1">
          <mxGeometry width="50" height="50" relative="1" as="geometry">
            <mxPoint x="763.74" y="520" as="sourcePoint" />
            <mxPoint x="739.74" y="547" as="targetPoint" />
          </mxGeometry>
        </mxCell>
      </root>
    </mxGraphModel>
  </diagram>
</mxfile>
